<?xml version="1.0" encoding="UTF-8"?>
<svg style="display:block;font-family:system-ui, -apple-system, &quot;Segoe UI&quot;, sans-serif;font-size:15px;color:rgb(37, 43, 48)" viewBox="0 0 640 260" width="640" xmlns="http://www.w3.org/2000/svg" height="260">
<defs>
<marker id="arrFeas" markerHeight="5" markerWidth="5" orient="auto" refX="8" refY="4" viewBox="0 0 10 8">
<path d="M0 0L10 4L0 8" fill="none" stroke="#9b9890" stroke-linecap="round" stroke-width="1.5"></path>
</marker>
<marker id="arrFeasY" markerHeight="5" markerWidth="5" orient="auto" refX="4" refY="0" viewBox="0 0 8 10">
<path d="M0 10L4 0L8 10" fill="none" stroke="#9b9890" stroke-linecap="round" stroke-width="1.5"></path>
</marker>
</defs>

<text fill="#1a5a2a" font-family="IBM Plex Sans KR,sans-serif" font-size="12" font-weight="500" text-anchor="middle" x="130" y="18">Feasible</text>
<text fill="#9b9890" font-family="IBM Plex Mono,monospace" font-size="10" text-anchor="middle" x="130" y="32">Precision falls gradually as recall↑</text>
<line marker-end="url(#arrFeas)" stroke="#ccc9be" stroke-width="1" x1="40" x2="230" y1="210" y2="210"></line>
<line marker-end="url(#arrFeasY)" stroke="#ccc9be" stroke-width="1" x1="40" x2="40" y1="210" y2="50"></line>
<text fill="#9b9890" font-family="IBM Plex Mono,monospace" font-size="9" text-anchor="middle" x="130" y="225">Recall</text>
<text fill="#9b9890" font-family="IBM Plex Mono,monospace" font-size="9" text-anchor="middle" transform="rotate(-90,16,130)" x="16" y="130">Precision</text>

<path d="M40,60 C80,63 130,75 175,105 S210,165 220,208" fill="none" stroke="#1a5a2a" stroke-width="2"></path>

<line stroke="#1a5a2a" stroke-dasharray="4,3" stroke-width="1" x1="184" x2="184" y1="210" y2="135"></line>
<text fill="#1a5a2a" font-family="IBM Plex Mono,monospace" font-size="9" text-anchor="middle" x="184" y="222">0.9</text>
<line stroke="#1a5a2a" stroke-dasharray="4,3" stroke-width="1" x1="40" x2="184" y1="135" y2="135"></line>
<text fill="#1a5a2a" font-family="IBM Plex Mono,monospace" font-size="9" text-anchor="end" x="36" y="138">0.6</text>
<circle cx="184" cy="135" fill="#1a5a2a" r="4"></circle>
<text fill="#1a5a2a" font-family="IBM Plex Mono,monospace" font-size="9" x="150" y="88">Gradual curve</text>
<text fill="#1a5a2a" font-family="IBM Plex Mono,monospace" font-size="9" x="193" y="128">Recall 90%→</text>
<text fill="#1a5a2a" font-family="IBM Plex Mono,monospace" font-size="9" x="193" y="140">Precision 60%</text>
<text fill="#1a5a2a" font-family="IBM Plex Sans KR,sans-serif" font-size="10" x="193" y="152">Operationally feasible</text>

<text fill="#8a1a1a" font-family="IBM Plex Sans KR,sans-serif" font-size="12" font-weight="500" text-anchor="middle" x="450" y="18">Difficult to achieve</text>
<text fill="#9b9890" font-family="IBM Plex Mono,monospace" font-size="10" text-anchor="middle" x="450" y="32">Precision falls sharply as recall↑</text>
<line marker-end="url(#arrFeas)" stroke="#ccc9be" stroke-width="1" x1="360" x2="550" y1="210" y2="210"></line>
<line marker-end="url(#arrFeasY)" stroke="#ccc9be" stroke-width="1" x1="360" x2="360" y1="210" y2="50"></line>
<text fill="#9b9890" font-family="IBM Plex Mono,monospace" font-size="9" text-anchor="middle" x="450" y="225">Recall</text>
<text fill="#9b9890" font-family="IBM Plex Mono,monospace" font-size="9" text-anchor="middle" transform="rotate(-90,336,130)" x="336" y="130">Precision</text>

<path d="M360,65 C368,90 385,145 415,175 S470,200 540,208" fill="none" stroke="#8a1a1a" stroke-width="2"></path>

<line stroke="#8a1a1a" stroke-dasharray="4,3" stroke-width="1" x1="504" x2="504" y1="210" y2="193"></line>
<text fill="#8a1a1a" font-family="IBM Plex Mono,monospace" font-size="9" text-anchor="middle" x="504" y="222">0.9</text>
<line stroke="#8a1a1a" stroke-dasharray="4,3" stroke-width="1" x1="360" x2="504" y1="193" y2="193"></line>
<text fill="#8a1a1a" font-family="IBM Plex Mono,monospace" font-size="9" text-anchor="end" x="356" y="196">0.06</text>
<circle cx="504" cy="193" fill="#8a1a1a" r="4"></circle>
<text fill="#8a1a1a" font-family="IBM Plex Mono,monospace" font-size="9" x="370" y="88">Sharp early drop</text>
<text fill="#8a1a1a" font-family="IBM Plex Mono,monospace" font-size="9" x="420" y="173">Recall 90%→</text>
<text fill="#8a1a1a" font-family="IBM Plex Mono,monospace" font-size="9" x="420" y="185">Precision 6%</text>
<text fill="#8a1a1a" font-family="IBM Plex Sans KR,sans-serif" font-size="10" x="420" y="160">Too many false alarms</text>
</svg>